<?xml version="1.0" encoding="utf-8"?>
<!-- Generator: Adobe Illustrator 24.0.1, SVG Export Plug-In . SVG Version: 6.00 Build 0)  -->
<svg version="1.1" id="图层_1" xmlns="http://www.w3.org/2000/svg" xmlns:xlink="http://www.w3.org/1999/xlink" x="0px" y="0px"
	 viewBox="0 0 252.47 86.18" style="enable-background:new 0 0 252.47 86.18;" xml:space="preserve">
<style type="text/css">
	.st0{fill:#FF6A00;}
	.st1{fill:none;stroke:#FF6A00;stroke-width:2;stroke-miterlimit:10;}
	.st2{fill:url(#SVGID_1_);}
	.st3{fill:#0056E0;}
	.st4{fill:#2B2B2B;}
	.st5{fill:#5538C4;}
	.st6{fill:#FFFFFF;}
	.st7{fill:none;stroke:#FFFFFF;stroke-width:6;stroke-miterlimit:10;}
	.st8{fill:none;stroke:#FFFFFF;stroke-width:3.55;stroke-miterlimit:10;}
	.st9{fill:#1E7C16;}
	.st10{fill:#3F3F3F;}
	.st11{fill:none;}
</style>
<g>
	<circle class="st0" cx="209.55" cy="44.7" r="8"/>
	<circle class="st0" cx="240.12" cy="73.59" r="8"/>
	<circle class="st0" cx="177.47" cy="73.59" r="8"/>
	<polyline class="st1" points="182.12,68.91 209.55,41.47 236.99,68.91 	"/>
	<g>
		<circle class="st0" cx="209.55" cy="44.7" r="8"/>
		<circle class="st0" cx="178.99" cy="12.58" r="8"/>
		<circle class="st0" cx="146.9" cy="44.7" r="8"/>
		<polyline class="st1" points="151.55,40.02 178.99,12.58 206.42,40.02 		"/>
	</g>
	<g>
		<polygon class="st10" points="154.04,58.86 148.82,81.6 153.54,81.6 158.76,58.86 		"/>
		<path class="st10" d="M166.42,62.38c-1.4-1.57-3.42-2.44-5.68-2.44c-0.46,0-0.95,0.06-1.44,0.14l-1.09,4.75l0.11-0.05
			c0.85-0.42,1.66-0.63,2.42-0.63c0.9,0,1.6,0.29,2.14,0.9c0.92,1.03,1.25,2.73,0.91,4.63l-2.74,11.92h4.65l2.36-10.31
			c0.06-0.24,0.12-0.47,0.16-0.72C168.86,67.36,168.2,64.37,166.42,62.38z"/>
	</g>
	<g>
		<path class="st10" d="M56.98,42.11h-4.17l-1.46,2.87h-2.03L55.8,32.7h1.87l1.68,12.28h-2.03L56.98,42.11z M53.68,40.4h3.1
			l-0.58-4.84h-0.05L53.68,40.4z"/>
		<path class="st10" d="M67.56,40.32l-0.9,4.66h-1.97l2.38-12.28h4.51c1.3,0,2.25,0.35,2.85,1.05c0.6,0.7,0.79,1.62,0.57,2.76
			c-0.22,1.15-0.77,2.08-1.64,2.77c-0.87,0.69-1.95,1.04-3.25,1.04H67.56z M67.87,38.68h2.55c0.73,0,1.31-0.2,1.76-0.61
			c0.44-0.4,0.73-0.92,0.85-1.54c0.12-0.62,0.04-1.14-0.25-1.56c-0.29-0.42-0.79-0.63-1.52-0.63h-2.55L67.87,38.68z"/>
		<path class="st10" d="M84.36,42.11h-4.17l-1.46,2.87H76.7l6.48-12.28h1.87l1.68,12.28h-2.03L84.36,42.11z M81.07,40.4h3.1
			l-0.58-4.84h-0.05L81.07,40.4z"/>
		<path class="st10" d="M101.37,40.96l0.01,0.05c-0.22,1.24-0.8,2.24-1.74,3s-2.08,1.14-3.43,1.14c-1.37,0-2.39-0.48-3.05-1.45
			c-0.67-0.96-0.85-2.2-0.56-3.7l0.45-2.34c0.29-1.5,0.95-2.73,1.98-3.7c1.03-0.97,2.22-1.46,3.57-1.46c1.39,0,2.4,0.37,3.06,1.11
			c0.65,0.74,0.84,1.75,0.57,3.03l-0.03,0.05h-1.9c0.16-0.82,0.07-1.45-0.27-1.88c-0.34-0.44-0.92-0.65-1.75-0.65
			c-0.8,0-1.49,0.33-2.09,0.99c-0.59,0.66-0.99,1.49-1.18,2.5l-0.45,2.35c-0.2,1.02-0.12,1.86,0.22,2.52
			c0.35,0.66,0.93,0.99,1.75,0.99c0.8,0,1.46-0.22,1.96-0.66c0.5-0.44,0.83-1.07,0.99-1.9H101.37z"/>
		<path class="st10" d="M115.58,44.98h-1.97l1.01-5.24h-5.26l-1.01,5.24h-1.97l2.38-12.28h1.97l-1.04,5.4h5.26l1.04-5.4h1.97
			L115.58,44.98z"/>
		<path class="st10" d="M129.58,39.45h-4.61l-0.75,3.89h5.43l-0.32,1.64h-7.4l2.38-12.28h7.34l-0.32,1.64h-5.38l-0.67,3.47h4.61
			L129.58,39.45z"/>
	</g>
	<polygon class="st10" points="53.7,81.6 60.33,52.69 65,52.69 58.36,81.6 	"/>
	<path class="st10" d="M115.36,81.44c-2.26,0-4.28-0.87-5.68-2.44c-2.03-2.28-2.59-5.7-1.52-9.39c1.74-6.03,7.24-10.75,12.51-10.75
		c2.26,0,4.28,0.87,5.68,2.44c2.03,2.28,2.59,5.7,1.52,9.39C126.13,76.72,120.63,81.44,115.36,81.44z M120.66,63.07
		c-3.13,0-6.91,3.56-8.08,7.63c-0.67,2.33-0.44,4.44,0.64,5.64c0.54,0.61,1.24,0.9,2.14,0.9c3.13,0,6.91-3.56,8.08-7.63
		c0.67-2.33,0.44-4.44-0.64-5.64C122.26,63.36,121.56,63.07,120.66,63.07z"/>
	<path class="st10" d="M18.2,80.11c-4.06,0-7.66-1.53-10.15-4.32c-3.7-4.14-4.68-10.49-2.69-17.4c3.35-11.6,13.81-20.68,23.81-20.68
		c4.06,0,7.66,1.53,10.15,4.32c0.87,0.97,1.61,2.12,2.2,3.42l-4.84,1.52c-0.4-0.86-0.9-1.62-1.48-2.28
		c-1.53-1.71-3.56-2.58-6.03-2.58c-7.47,0-16.07,7.93-18.78,17.32c-1.6,5.54-0.93,10.66,1.78,13.7c1.53,1.71,3.56,2.58,6.03,2.58
		c2.56,0,5.35-0.94,8.07-2.71l3.77,3.08C26.2,78.72,22.12,80.11,18.2,80.11z"/>
	<path class="st10" d="M54.33,65.31c-0.28-1.58-0.91-2.92-1.88-4.01c-1.36-1.52-3.32-2.39-5.55-2.43c-0.02,0-0.21-0.01-0.21-0.01
		c-5.25,0.04-10.71,4.75-12.44,10.75c-1.07,3.69-0.51,7.12,1.52,9.39c0.04,0.04,0.08,0.08,0.11,0.1c0.21,0.22,0.43,0.43,0.74,0.69
		c0.06,0.05,0.29,0.23,0.33,0.26c0.21,0.15,0.43,0.29,0.66,0.42c0.04,0.02,0.25,0.12,0.25,0.12c0.72,0.37,1.51,0.62,2.29,0.73
		l0.1,0.02h0.04c0.43,0.06,0.81,0.09,1.18,0.09c0.27,0,0.55-0.01,0.82-0.04c0.06,0,0.11-0.01,0.23-0.03c0.2-0.02,0.4-0.05,0.6-0.08
		l0.24-0.05c0.2-0.04,0.39-0.08,0.59-0.14l0.21-0.06c0.21-0.06,0.42-0.12,0.63-0.2l0.16-0.06c0.23-0.08,0.46-0.18,0.68-0.28
		l0.09-0.04c2.5-1.12,4.76-3.13,6.38-5.66l0.5-0.78l-4.07-1.96l-0.4,0.61c-0.88,1.36-1.99,2.51-3.21,3.34
		c-0.88,0.59-1.79,0.99-2.64,1.14c-0.14,0.02-0.27,0.04-0.41,0.06c-0.14,0.01-0.27,0.02-0.41,0.02c-0.32,0-0.64-0.05-0.98-0.16
		c-0.16-0.05-0.32-0.12-0.49-0.21l-0.17-0.09c-0.04-0.03-0.08-0.06-0.15-0.11c-0.12-0.1-0.25-0.2-0.36-0.32
		c-0.45-0.51-0.76-1.21-0.9-2.03l0,0c-0.02-0.1-0.04-0.19-0.05-0.29c-0.12-0.92-0.02-2,0.27-3.11l0.05-0.22
		c0.07-0.25,0.16-0.5,0.25-0.75l0.12-0.3c0.06-0.15,0.12-0.29,0.18-0.44c0.03-0.06,0.2-0.4,0.2-0.4c0.05-0.1,0.1-0.21,0.16-0.31
		c0.04-0.08,0.19-0.33,0.19-0.33s0.15-0.27,0.21-0.35c0.05-0.08,0.2-0.31,0.2-0.31c0.09-0.14,0.18-0.28,0.31-0.45
		c0.09-0.13,0.19-0.25,0.28-0.37l0.06-0.08c0.04-0.05,0.08-0.1,0.12-0.14l0.01-0.01c0.03-0.03,0.23-0.27,0.23-0.27l0.29-0.32
		c0.08-0.08,0.15-0.16,0.23-0.24c0.07-0.07,0.14-0.14,0.22-0.21c0.12-0.11,0.24-0.22,0.38-0.35l0.14-0.12
		c0.14-0.12,0.28-0.23,0.42-0.33l0.14-0.1c0.15-0.11,0.3-0.21,0.45-0.31l0.11-0.07c0.16-0.1,0.32-0.19,0.48-0.28l0.09-0.05
		c0.15-0.08,0.31-0.15,0.51-0.24c0,0,0,0,0,0l0,0c0.02-0.01,0.04-0.02,0.06-0.03c0.17-0.07,0.35-0.14,0.56-0.21
		c0.18-0.06,0.35-0.1,0.55-0.15c0.18-0.04,0.36-0.07,0.54-0.08c0.14-0.01,0.28-0.03,0.41-0.03c0.88,0,1.57,0.28,2.11,0.86l0.04,0.04
		c0.51,0.57,0.83,1.44,0.93,2.48h-8.06l-0.01,0.01c-0.04,0.05-0.08,0.09-0.12,0.14l-0.06,0.08c-0.1,0.12-0.19,0.25-0.28,0.37
		c-0.13,0.18-0.22,0.31-0.31,0.45c0,0-0.16,0.23-0.2,0.31c-0.05,0.09-0.21,0.35-0.21,0.35s-0.15,0.25-0.19,0.33
		c-0.06,0.1-0.1,0.21-0.16,0.31c0,0-0.17,0.34-0.2,0.4c-0.06,0.14-0.12,0.29-0.18,0.44l-0.12,0.3c-0.08,0.2-0.14,0.41-0.2,0.62
		h14.46l0.15-0.64C54.53,68.3,54.59,66.75,54.33,65.31z"/>
	<path class="st10" d="M83.68,65.31c-0.28-1.58-0.91-2.92-1.88-4.01c-1.36-1.52-3.32-2.39-5.55-2.43c-0.02,0-0.21-0.01-0.21-0.01
		c-5.25,0.04-10.71,4.75-12.44,10.75c-1.07,3.69-0.51,7.12,1.52,9.39c0.04,0.04,0.08,0.08,0.11,0.1c0.21,0.22,0.43,0.43,0.74,0.69
		c0.06,0.05,0.29,0.23,0.33,0.26c0.21,0.15,0.43,0.29,0.66,0.42c0.04,0.02,0.25,0.12,0.25,0.12c0.72,0.37,1.51,0.62,2.29,0.73
		l0.1,0.02h0.04c0.43,0.06,0.81,0.09,1.18,0.09c0.27,0,0.55-0.01,0.82-0.04c0.06,0,0.11-0.01,0.23-0.03c0.2-0.02,0.4-0.05,0.6-0.08
		l0.24-0.05c0.2-0.04,0.39-0.08,0.59-0.14l0.21-0.06c0.21-0.06,0.42-0.12,0.63-0.2l0.16-0.06c0.23-0.08,0.46-0.18,0.68-0.28
		l0.09-0.04c2.5-1.12,4.76-3.13,6.38-5.66l0.5-0.78l-4.07-1.96l-0.4,0.61c-0.88,1.36-1.99,2.51-3.21,3.34
		c-0.88,0.59-1.79,0.99-2.64,1.14c-0.14,0.02-0.27,0.04-0.41,0.06c-0.14,0.01-0.27,0.02-0.41,0.02c-0.32,0-0.64-0.05-0.98-0.16
		c-0.16-0.05-0.32-0.12-0.49-0.21l-0.17-0.09c-0.04-0.03-0.08-0.06-0.15-0.11c-0.12-0.1-0.25-0.2-0.36-0.32
		c-0.45-0.51-0.76-1.21-0.9-2.03l0,0c-0.02-0.1-0.04-0.19-0.05-0.29c-0.12-0.92-0.02-2,0.27-3.11l0.05-0.22
		c0.07-0.25,0.16-0.5,0.25-0.75l0.12-0.3c0.06-0.15,0.12-0.29,0.18-0.44c0.03-0.06,0.2-0.4,0.2-0.4c0.05-0.1,0.1-0.21,0.16-0.31
		c0.04-0.08,0.19-0.33,0.19-0.33s0.15-0.27,0.21-0.35c0.05-0.08,0.2-0.31,0.2-0.31c0.09-0.14,0.18-0.28,0.31-0.45
		c0.09-0.13,0.19-0.25,0.28-0.37l0.06-0.08c0.04-0.05,0.08-0.1,0.12-0.14l0.01-0.01c0.03-0.03,0.23-0.27,0.23-0.27l0.29-0.32
		c0.08-0.08,0.15-0.16,0.23-0.24c0.07-0.07,0.14-0.14,0.22-0.21c0.12-0.11,0.24-0.22,0.38-0.35l0.14-0.12
		c0.14-0.12,0.28-0.23,0.42-0.33l0.14-0.1c0.15-0.11,0.3-0.21,0.45-0.31l0.11-0.07c0.16-0.1,0.32-0.19,0.48-0.28l0.09-0.05
		c0.15-0.08,0.31-0.15,0.51-0.24c0,0,0,0,0,0l0,0c0.02-0.01,0.04-0.02,0.06-0.03c0.17-0.07,0.35-0.14,0.56-0.21
		c0.18-0.06,0.35-0.1,0.55-0.15c0.18-0.04,0.36-0.07,0.54-0.08c0.14-0.01,0.28-0.03,0.41-0.03c0.88,0,1.57,0.28,2.11,0.86l0.04,0.04
		c0.51,0.57,0.83,1.44,0.93,2.48h-8.06l-0.01,0.01c-0.04,0.05-0.08,0.09-0.12,0.14l-0.06,0.08c-0.1,0.12-0.19,0.25-0.28,0.37
		c-0.13,0.18-0.22,0.31-0.31,0.45c0,0-0.16,0.23-0.2,0.31c-0.05,0.09-0.21,0.35-0.21,0.35s-0.15,0.25-0.19,0.33
		c-0.06,0.1-0.1,0.21-0.16,0.31c0,0-0.17,0.34-0.2,0.4c-0.06,0.14-0.12,0.29-0.18,0.44l-0.12,0.3c-0.08,0.2-0.14,0.41-0.2,0.62
		h14.46l0.15-0.64C83.88,68.3,83.94,66.75,83.68,65.31z"/>
	<path class="st10" d="M106.33,66.7c-0.08-2.11-0.77-3.98-2.05-5.4c-1.4-1.57-3.42-2.44-5.68-2.44c0,0,0,0,0,0s0,0,0,0
		c-0.33,0-0.66,0.03-0.99,0.07c-0.16,0.02-0.32,0.04-0.48,0.07c-0.11,0.02-0.22,0.04-0.33,0.06c-1.02,0.2-2.04,0.54-3.05,1.06
		l-1.43,6.22l0,0l-0.25,1.08c0.63-0.93,1.38-1.76,2.18-2.45c0.05-0.05,0.11-0.09,0.17-0.13c0.2-0.16,0.4-0.32,0.61-0.46
		c0.09-0.06,0.19-0.12,0.28-0.19c0.17-0.11,0.34-0.21,0.51-0.31c0.12-0.06,0.23-0.13,0.35-0.18c0.15-0.08,0.31-0.14,0.46-0.2
		c0.12-0.05,0.25-0.1,0.37-0.14c0.16-0.05,0.33-0.1,0.49-0.13c0.11-0.03,0.21-0.06,0.32-0.08c0.26-0.05,0.53-0.08,0.78-0.08
		c0,0,0,0,0,0c0.79,0,1.41,0.24,1.92,0.7c0.07,0.07,0.15,0.12,0.22,0.2c0.31,0.35,0.55,0.78,0.71,1.27c0.41,1.18,0.4,2.72-0.08,4.37
		c-0.1,0.35-0.23,0.7-0.37,1.04c-0.03,0.07-0.06,0.14-0.09,0.22c-0.15,0.34-0.3,0.67-0.48,1c-0.01,0.02-0.02,0.03-0.03,0.05
		c-0.18,0.32-0.37,0.63-0.57,0.93c-0.03,0.05-0.07,0.1-0.1,0.15c-0.22,0.31-0.45,0.62-0.69,0.91c-0.01,0.01-0.02,0.02-0.02,0.03
		c-0.25,0.29-0.51,0.57-0.77,0.84c-0.01,0.01-0.03,0.03-0.04,0.04c-0.84,0.82-1.77,1.48-2.71,1.9l0,0c-0.75,0.34-1.5,0.53-2.21,0.53
		c-0.9,0-1.6-0.29-2.14-0.9c-1.07-1.2-1.31-3.31-0.62-5.71l4.1-17.94h-4.66l-3.89,16.92c-0.14,0.47-0.25,0.96-0.33,1.45L85.63,72
		c-0.29,2.78,0.41,5.25,1.98,7.01c1.4,1.57,3.42,2.44,5.68,2.44c1.36,0,2.74-0.32,4.06-0.89c0.24-0.1,0.47-0.21,0.7-0.33
		c0.13-0.07,0.27-0.14,0.4-0.22c0.14-0.08,0.29-0.16,0.43-0.25c0.13-0.08,0.26-0.16,0.39-0.24c0.15-0.1,0.3-0.2,0.46-0.31
		c0.14-0.1,0.28-0.2,0.42-0.31c0.2-0.16,0.41-0.32,0.6-0.48c0.11-0.09,0.22-0.19,0.33-0.29c0.14-0.13,0.28-0.26,0.42-0.39
		c0.1-0.1,0.21-0.2,0.31-0.3c0.16-0.16,0.32-0.33,0.48-0.51c0.08-0.08,0.15-0.17,0.23-0.25c0.2-0.23,0.4-0.47,0.59-0.72
		c0.08-0.1,0.15-0.2,0.22-0.3c0.13-0.18,0.27-0.37,0.39-0.56c0.07-0.1,0.14-0.21,0.21-0.31c0.16-0.25,0.31-0.5,0.46-0.76
		c0.02-0.04,0.05-0.08,0.07-0.13c0.16-0.3,0.32-0.6,0.46-0.91c0.05-0.1,0.09-0.2,0.13-0.3c0.1-0.23,0.2-0.46,0.29-0.7
		c0.04-0.1,0.08-0.2,0.12-0.3c0.12-0.32,0.23-0.65,0.33-0.98c0,0,0-0.01,0-0.01c0.11-0.37,0.19-0.74,0.26-1.11
		C106.27,68.59,106.36,67.62,106.33,66.7z"/>
	<g>
		<path class="st9" d="M152.39,59.81c-0.28-1-2.96-3.13-5.99-4.26c-2.1-0.79-4.69-0.09-5.55,0.33c-1.7,0.82-2.35,2.93-1.93,4.78
			c1.93-1.57,4.59-2.53,8.23-1.88c0.19,0.02,0.32,0.04,0.32,0.04c-0.11-0.02-0.21-0.02-0.32-0.04c-1.1-0.12-4.96-0.26-7.86,2.9
			c0.82,1.43,2.58,1.79,4.14,1.04c0.89-0.43,3.11-2.36,5.1-2.52C150.89,60,152.81,61.29,152.39,59.81z"/>
		<path class="st9" d="M139.29,61.67c-0.13-0.22-0.23-0.46-0.31-0.73c-0.03-0.1-0.04-0.2-0.06-0.29c-2.38,1.94-4.37,6.45-4.49,6.87
			c-0.3,0.99-1.43,7.98-1.82,8.83c-0.39,0.86-0.86,1.59-1.41,2.21c-0.51,0.49-0.79,0.93-0.85,1.32c-0.11,0.32-0.02,0.64,0.25,0.95
			c0.28,0.31,0.95,0.51,2.03,0.59c0.95,0.07,1.63-0.03,2.07-0.29c0.43-0.26,0.7-0.56,0.81-0.88c0.13-0.38,0.12-0.88-0.02-1.48
			c-0.1-0.53-0.02-1.39,0.24-2.59c0.13-0.58,1.28-8.08,1.29-8.15C137.63,65.24,138.12,62.95,139.29,61.67z"/>
		<g>
			<path class="st9" d="M132.29,54.99c1.83-0.02,3.61,1.24,4.16,1.8c1.08,1.1,0.98,2.89,0.15,4.19c-1.04-1.74-2.81-3.22-5.78-3.73
				c-0.15-0.04-0.25-0.06-0.25-0.06c0.09,0.01,0.16,0.04,0.25,0.06c0.87,0.21,3.87,1.18,5.21,4.41c-1.03,0.87-2.48,0.65-3.46-0.35
				c-0.56-0.58-1.73-2.67-3.21-3.35c-1.75-0.81-3.58-0.35-2.85-1.37C127.01,55.9,129.65,55.01,132.29,54.99z"/>
			<path class="st9" d="M134.42,68.21c0.11-0.13,0.84-0.84,0.98-0.95c0.01-0.01,0.01-0.01,0.02-0.01c0,0,0.01-0.01,0.01-0.01
				c0.19-0.16,0.38-0.3,0.58-0.42c0.05-0.03,0.09-0.06,0.14-0.08c0.06-0.03,0.12-0.05,0.17-0.08c0.01-0.01,0.02-0.01,0.03-0.02
				c0.01,0,0.03-0.01,0.04-0.01c0.17-0.08,0.34-0.16,0.51-0.22c-0.12-3.34,0.65-3.81-0.32-5.42c-0.04,0.07-0.08,0.14-0.13,0.21
				c-0.13,0.18-0.28,0.34-0.44,0.47C136.43,62.62,135.1,64.27,134.42,68.21z"/>
		</g>
	</g>
</g>
</svg>
