<svg id="图层_1" data-name="图层 1" xmlns="http://www.w3.org/2000/svg" viewBox="0 0 130 130"><defs><style>.cls-1{fill:#ff6a00;}.cls-2{fill:none;stroke:#ff6a00;stroke-miterlimit:10;stroke-width:2px;}.cls-3{fill:#1e7c16;}</style></defs><title>er锤</title><circle class="cls-1" cx="87.32" cy="66.61" r="8"/><circle class="cls-1" cx="117.89" cy="95.5" r="8"/><circle class="cls-1" cx="55.23" cy="95.5" r="8"/><polyline class="cls-2" points="59.88 90.83 87.32 63.39 114.76 90.83"/><circle class="cls-1" cx="87.32" cy="66.61" r="8"/><circle class="cls-1" cx="56.75" cy="34.5" r="8"/><circle class="cls-1" cx="24.66" cy="66.61" r="8"/><polyline class="cls-2" points="29.31 61.93 56.75 34.49 84.19 61.93"/><path class="cls-3" d="M30.16,81.73c-.29-1-3-3.13-6-4.27a8.22,8.22,0,0,0-5.55.33,4.22,4.22,0,0,0-1.93,4.78,9.69,9.69,0,0,1,8.23-1.88l.32,0-.32,0a9.44,9.44,0,0,0-7.86,2.9,3.08,3.08,0,0,0,4.14,1c.89-.43,3.11-2.36,5.11-2.52C28.65,81.91,30.58,83.2,30.16,81.73Z"/><path class="cls-3" d="M17.05,83.59a3.73,3.73,0,0,1-.31-.73l-.06-.29c-2.38,1.94-4.36,6.45-4.49,6.87-.3,1-1.43,8-1.82,8.83A8.54,8.54,0,0,1,9,100.48a2.57,2.57,0,0,0-.86,1.32,1,1,0,0,0,.25,1,3.21,3.21,0,0,0,2,.59,3.65,3.65,0,0,0,2.07-.3,1.74,1.74,0,0,0,.81-.87,2.67,2.67,0,0,0,0-1.48,7.42,7.42,0,0,1,.25-2.59c.12-.58,1.27-8.08,1.28-8.14C15.39,87.15,15.88,84.87,17.05,83.59Z"/><path class="cls-3" d="M10.06,76.9a6.65,6.65,0,0,1,4.15,1.8,3.4,3.4,0,0,1,.15,4.19,7.94,7.94,0,0,0-5.78-3.73l-.25,0,.25,0a7.7,7.7,0,0,1,5.21,4.41,2.51,2.51,0,0,1-3.46-.35c-.56-.58-1.72-2.67-3.2-3.35-1.75-.81-3.58-.36-2.85-1.37C4.77,77.81,7.42,76.93,10.06,76.9Z"/><path class="cls-3" d="M12.19,90.13c.11-.13.84-.85,1-1h0v0c.19-.15.38-.29.58-.42l.15-.08.17-.08,0,0h0a3.92,3.92,0,0,1,.51-.22c-.12-3.34.64-3.81-.32-5.42a1.48,1.48,0,0,1-.13.21,2.47,2.47,0,0,1-.44.47C14.2,84.54,12.86,86.18,12.19,90.13Z"/></svg>