<svg id="图层_1" data-name="图层 1" xmlns="http://www.w3.org/2000/svg" viewBox="0 0 174.75 64.53"><defs><style>.cls-1{fill:#3f3f3f;}</style></defs><title>er锤</title><polygon class="cls-1" points="153.59 34.07 148.37 56.81 153.09 56.81 158.31 34.07 153.59 34.07"/><path class="cls-1" d="M166,37.59a7.45,7.45,0,0,0-5.68-2.44,9.22,9.22,0,0,0-1.44.14L157.76,40l.12-.06a5.48,5.48,0,0,1,2.41-.63,2.76,2.76,0,0,1,2.15.9,5.57,5.57,0,0,1,.91,4.63l-2.74,11.93h4.65l2.37-10.31c.06-.24.11-.47.16-.72A9.39,9.39,0,0,0,166,37.59Z"/><polygon class="cls-1" points="137.14 34.07 131.92 56.81 136.63 56.81 141.85 34.07 137.14 34.07"/><path class="cls-1" d="M59.36,17.31H55.19l-1.46,2.87h-2L58.18,7.9h1.87l1.68,12.28h-2Zm-3.3-1.71h3.1l-.58-4.84h0Z"/><path class="cls-1" d="M69.94,15.53,69,20.18h-2L69.45,7.9H74a3.56,3.56,0,0,1,2.85,1,3.12,3.12,0,0,1,.57,2.76,4.52,4.52,0,0,1-1.64,2.77,5,5,0,0,1-3.26,1Zm.31-1.65H72.8a2.5,2.5,0,0,0,1.76-.61,2.71,2.71,0,0,0,.85-1.54,2,2,0,0,0-.25-1.56,1.7,1.7,0,0,0-1.52-.62H71.09Z"/><path class="cls-1" d="M86.74,17.31H82.57l-1.46,2.87h-2L85.56,7.9h1.87l1.68,12.28h-2Zm-3.3-1.71h3.1L86,10.76h0Z"/><path class="cls-1" d="M103.75,16.17v0a4.8,4.8,0,0,1-1.73,3,5.29,5.29,0,0,1-3.43,1.14,3.46,3.46,0,0,1-3.06-1.45,4.74,4.74,0,0,1-.56-3.7l.45-2.33a6.67,6.67,0,0,1,2-3.7A5.06,5.06,0,0,1,101,7.72,3.87,3.87,0,0,1,104,8.83a3.32,3.32,0,0,1,.57,3l0,.05h-1.9A2.25,2.25,0,0,0,102.4,10a2.1,2.1,0,0,0-1.75-.65,2.72,2.72,0,0,0-2.08,1,5.08,5.08,0,0,0-1.19,2.5l-.45,2.35a3.82,3.82,0,0,0,.22,2.52,1.82,1.82,0,0,0,1.75,1,2.87,2.87,0,0,0,2-.66,3.17,3.17,0,0,0,1-1.89Z"/><path class="cls-1" d="M118,20.18h-2l1-5.24h-5.27l-1,5.24h-2L111.14,7.9h2l-1,5.4h5.26l1.05-5.4h2Z"/><path class="cls-1" d="M132,14.66h-4.61l-.75,3.89H132l-.32,1.63h-7.39L126.69,7.9H134l-.31,1.65h-5.38L127.67,13h4.61Z"/><polygon class="cls-1" points="56.07 56.81 62.71 27.89 67.38 27.89 60.74 56.81 56.07 56.81"/><path class="cls-1" d="M117.74,56.65a7.52,7.52,0,0,1-5.69-2.44c-2-2.28-2.58-5.7-1.52-9.39,1.74-6,7.24-10.75,12.51-10.75a7.47,7.47,0,0,1,5.68,2.43c2,2.28,2.59,5.7,1.53,9.4C128.51,51.92,123,56.65,117.74,56.65ZM123,38.27c-3.13,0-6.91,3.56-8.08,7.63-.68,2.33-.44,4.44.63,5.64a2.72,2.72,0,0,0,2.15.9c3.13,0,6.91-3.56,8.08-7.62.68-2.34.44-4.45-.63-5.65A2.76,2.76,0,0,0,123,38.27Z"/><path class="cls-1" d="M20.58,55.31A13.35,13.35,0,0,1,10.43,51c-3.7-4.14-4.68-10.48-2.69-17.4C11.09,22,21.55,12.91,31.55,12.91a13,13,0,0,1,12.36,7.75l-4.84,1.51a9.26,9.26,0,0,0-1.49-2.28,7.74,7.74,0,0,0-6-2.58c-7.47,0-16.07,7.94-18.78,17.33-1.6,5.54-.93,10.66,1.78,13.69a7.74,7.74,0,0,0,6,2.58,15,15,0,0,0,8.07-2.71l3.77,3.08A21.08,21.08,0,0,1,20.58,55.31Z"/><path class="cls-1" d="M56.71,40.51a8,8,0,0,0-1.88-4,7.52,7.52,0,0,0-5.54-2.43h-.22c-5.25,0-10.71,4.75-12.44,10.75-1.06,3.69-.51,7.11,1.52,9.39l.11.1A8.63,8.63,0,0,0,39,55l.33.26a7.39,7.39,0,0,0,.66.42l.25.12a7.46,7.46,0,0,0,2.29.73l.1,0h0a8.31,8.31,0,0,0,1.17.09c.28,0,.55,0,.82,0l.23,0q.3,0,.6-.09l.24,0,.6-.14.2-.06.63-.2.16-.06c.23-.08.46-.17.68-.27l.09,0A15.19,15.19,0,0,0,54.48,50l.5-.79-4.07-2-.4.61a11.66,11.66,0,0,1-3.21,3.34,7.09,7.09,0,0,1-2.64,1.14,2.9,2.9,0,0,1-.41.06l-.41,0a3.14,3.14,0,0,1-1-.16,2.32,2.32,0,0,1-.49-.22L42.21,52l-.15-.11a2.74,2.74,0,0,1-.36-.32,4.08,4.08,0,0,1-.9-2h0a2.47,2.47,0,0,1-.06-.29A8.34,8.34,0,0,1,41,46.11l.05-.21c.08-.26.16-.51.25-.76l.12-.29.18-.44.2-.4c0-.1.1-.21.16-.31l.18-.33.21-.35.2-.31c.1-.14.19-.28.32-.45l.28-.38.06-.08.12-.14h0l.22-.27.29-.31.23-.24.22-.22.38-.34.14-.12.42-.34.14-.1a5.09,5.09,0,0,1,.45-.31l.11-.07.48-.28.09,0,.5-.24h0l0,0a5.29,5.29,0,0,1,.57-.21,4,4,0,0,1,.55-.15l.54-.08c.13,0,.27,0,.41,0a2.69,2.69,0,0,1,2.1.86l0,0a4.24,4.24,0,0,1,.94,2.47H44.16a1.34,1.34,0,0,1-.11.14l-.07.08-.28.38c-.13.17-.22.31-.31.45s-.16.23-.2.31-.21.35-.21.35-.15.25-.19.33l-.15.31-.2.4c-.07.15-.12.29-.18.44l-.12.29c-.08.21-.14.41-.21.62H56.39l.15-.64A11.48,11.48,0,0,0,56.71,40.51Z"/><path class="cls-1" d="M86.06,40.51a8,8,0,0,0-1.88-4,7.52,7.52,0,0,0-5.54-2.43h-.22c-5.25,0-10.7,4.75-12.44,10.75-1.06,3.69-.51,7.11,1.52,9.39l.11.1a8.63,8.63,0,0,0,.74.69l.33.26a7.39,7.39,0,0,0,.66.42l.25.12a7.46,7.46,0,0,0,2.29.73l.1,0h0a8.31,8.31,0,0,0,1.17.09c.28,0,.55,0,.82,0l.23,0q.3,0,.6-.09l.24,0,.6-.14.2-.06.63-.2.16-.06c.23-.08.46-.17.68-.27l.1,0A15.22,15.22,0,0,0,83.83,50l.5-.79-4.07-2-.4.61a11.53,11.53,0,0,1-3.21,3.34A7.09,7.09,0,0,1,74,52.36a2.76,2.76,0,0,1-.4.06l-.42,0a3.14,3.14,0,0,1-1-.16,2.05,2.05,0,0,1-.48-.22L71.56,52l-.15-.11a2.74,2.74,0,0,1-.36-.32,4.08,4.08,0,0,1-.9-2h0a2.47,2.47,0,0,1-.06-.29,8.34,8.34,0,0,1,.27-3.11l0-.21c.08-.26.16-.51.25-.76l.12-.29.18-.44.2-.4c0-.1.1-.21.16-.31l.18-.33.21-.35.21-.31c.09-.14.18-.28.31-.45l.28-.38.06-.08.12-.14h0l.23-.27.28-.31c.08-.08.15-.16.24-.24l.21-.22.38-.34.14-.12.42-.34.14-.1a5.09,5.09,0,0,1,.45-.31l.11-.07.48-.28.09,0,.51-.24h0l.06,0a4.42,4.42,0,0,1,.56-.21,4,4,0,0,1,.55-.15l.54-.08c.13,0,.27,0,.41,0a2.69,2.69,0,0,1,2.1.86l0,0a4.24,4.24,0,0,1,.94,2.47H73.52l-.12.14-.07.08-.28.38-.31.45s-.16.23-.2.31-.21.35-.21.35-.15.25-.19.33L72,44l-.2.4-.18.44-.12.29c-.08.21-.14.41-.21.62H85.74l.15-.64A11.48,11.48,0,0,0,86.06,40.51Z"/><path class="cls-1" d="M108.7,41.9a8.48,8.48,0,0,0-2-5.4A7.49,7.49,0,0,0,101,34.07h0c-.34,0-.67,0-1,.06l-.47.07-.33.07a11.31,11.31,0,0,0-3.05,1.06L94.7,41.54h0l-.25,1.08a12.29,12.29,0,0,1,2.19-2.45L96.8,40c.2-.16.4-.32.61-.46l.28-.19q.25-.16.51-.3a2.91,2.91,0,0,1,.35-.18A4.69,4.69,0,0,1,99,38.7l.37-.14a4.43,4.43,0,0,1,.49-.13l.32-.08a4.13,4.13,0,0,1,.78-.08h0a2.75,2.75,0,0,1,1.92.7l.22.2a3.78,3.78,0,0,1,.71,1.28,7.41,7.41,0,0,1-.07,4.37c-.11.35-.23.7-.37,1l-.09.22c-.15.33-.31.67-.48,1l0,0q-.27.48-.57.93l-.1.15c-.22.31-.45.62-.69.9l0,0q-.37.43-.78.84l0,0a9.65,9.65,0,0,1-2.7,1.9h0a5.42,5.42,0,0,1-2.22.53,2.69,2.69,0,0,1-2.14-.9c-1.07-1.2-1.31-3.31-.62-5.71L97,27.89H92.35L88.47,44.82a11.72,11.72,0,0,0-.33,1.45L88,47.2a8.89,8.89,0,0,0,2,7,7.48,7.48,0,0,0,5.68,2.44,10.39,10.39,0,0,0,4.07-.9l.7-.33.39-.21.43-.25.4-.24.45-.31.43-.31.6-.48.33-.29q.21-.18.42-.39l.31-.3c.16-.17.32-.33.47-.51a2.73,2.73,0,0,0,.23-.25c.2-.23.4-.47.59-.72l.22-.3c.14-.18.27-.37.39-.56l.21-.31c.16-.25.31-.5.46-.75,0-.05,0-.09.07-.13.17-.3.32-.6.47-.91l.13-.3c.1-.23.2-.47.29-.7l.12-.31c.12-.32.23-.65.33-1h0c.11-.38.19-.74.26-1.11A11.64,11.64,0,0,0,108.7,41.9Z"/><path class="cls-1" d="M149.07,38.93l1-4.34a7.94,7.94,0,0,0-2.86-.52c-5.28,0-10.77,4.72-12.51,10.75a10.72,10.72,0,0,0,.22,7.33A19.41,19.41,0,0,1,135,50a5.16,5.16,0,0,1,4.4-4.94c1.42-3.7,4.89-6.79,7.81-6.79A2.79,2.79,0,0,1,149.07,38.93Z"/></svg>